[{"name":"/Users/till/Downloads/movies","filetype":"directory","filesize":170,"creationdate":"2016-02-06 01:51:53 +0100"},{"name":"/Users/till/Downloads/movies/Chicago.Cab.1997.Xvid.DVDRip-RLYEH","filetype":"directory","filesize":136,"creationdate":"2015-12-25 18:56:23 +0100"},{"name":"/Users/till/Downloads/movies/Chicago.Cab.1997.Xvid.DVDRip-RLYEH/Chicago.Cab.1997.Xvid.DVDRip-RLYEH.avi","filetype":"file","filesize":734896128,"creationdate":"2015-12-25 18:56:22 +0100","mediaspecs":{"streams":[{"index":0,"codec_name":"mpeg4","codec_long_name":"MPEG-4 part 2","profile":"Advanced Simple Profile","codec_type":"video","codec_time_base":"911/21845","codec_tag_string":"XVID","codec_tag":"0x44495658","width":672,"height":368,"coded_width":672,"coded_height":368,"has_b_frames":1,"sample_aspect_ratio":"1:1","display_aspect_ratio":"42:23","pix_fmt":"yuv420p","level":5,"chroma_location":"left","refs":1,"quarter_sample":"0","divx_packed":"0","r_frame_rate":"24000/1001","avg_frame_rate":"24000/1001","time_base":"1001/24000","start_pts":0,"start_time":"0.000000","duration_ts":138516,"duration":"5777.271500","bit_rate":"892934","nb_frames":"138516","disposition":{"default":0,"dub":0,"original":0,"comment":0,"lyrics":0,"karaoke":0,"forced":0,"hearing_impaired":0,"visual_impaired":0,"clean_effects":0,"attached_pic":0}},{"index":1,"codec_name":"mp3","codec_long_name":"MP3 (MPEG audio layer 3)","codec_type":"audio","codec_time_base":"1/48000","codec_tag_string":"U[0][0][0]","codec_tag":"0x0055","sample_fmt":"s16p","sample_rate":"48000","channels":2,"channel_layout":"stereo","bits_per_sample":0,"r_frame_rate":"0/0","avg_frame_rate":"0/0","time_base":"3/125","start_pts":0,"start_time":"0.000000","duration_ts":240720,"duration":"5777.280000","bit_rate":"111992","nb_frames":"240720","disposition":{"default":0,"dub":0,"original":0,"comment":0,"lyrics":0,"karaoke":0,"forced":0,"hearing_impaired":0,"visual_impaired":0,"clean_effects":0,"attached_pic":0}}],"chapters":[],"format":{"filename":"/Users/till/Downloads/movies/Chicago.Cab.1997.Xvid.DVDRip-RLYEH/Chicago.Cab.1997.Xvid.DVDRip-RLYEH.avi","nb_streams":2,"nb_programs":0,"format_name":"avi","format_long_name":"AVI (Audio Video Interleaved)","start_time":"0.000000","duration":"5777.280000","size":"734896128","bit_rate":"1017636","probe_score":100,"tags":{"encoder":"VirtualDubMod 1.5.4.1 (build 2178/release)","IAS1":"English"}}}},{"name":"/Users/till/Downloads/movies/Chicago.Cab.1997.Xvid.DVDRip-RLYEH/cc-rlyeh.nfo","filetype":"file","filesize":7779,"creationdate":"2015-11-02 20:10:31 +0100","mediaspecs":null},{"name":"/Users/till/Downloads/movies/The.Assassin.2015.1080p.WEB-DL.x264.AAC-SHOW","filetype":"directory","filesize":204,"creationdate":"2015-10-24 23:00:40 +0200"},{"name":"/Users/till/Downloads/movies/The.Assassin.2015.1080p.WEB-DL.x264.AAC-SHOW/1.高清控联盟-高清影视发烧友的集中地.mkv","filetype":"file","filesize":3267989,"creationdate":"2015-10-24 19:07:35 +0200","mediaspecs":{"streams":[{"index":0,"codec_name":"h264","codec_long_name":"H.264 / AVC / MPEG-4 AVC / MPEG-4 part 10","profile":"High","codec_type":"video","codec_time_base":"1/50","codec_tag_string":"[0][0][0][0]","codec_tag":"0x0000","width":1280,"height":720,"coded_width":1280,"coded_height":720,"has_b_frames":0,"sample_aspect_ratio":"1:1","display_aspect_ratio":"16:9","pix_fmt":"yuv420p","level":30,"chroma_location":"left","refs":1,"is_avc":"1","nal_length_size":"4","r_frame_rate":"25/1","avg_frame_rate":"25/1","time_base":"1/1000","start_pts":0,"start_time":"0.000000","bits_per_raw_sample":"8","disposition":{"default":1,"dub":0,"original":0,"comment":0,"lyrics":0,"karaoke":0,"forced":0,"hearing_impaired":0,"visual_impaired":0,"clean_effects":0,"attached_pic":0}},{"index":1,"codec_name":"aac","codec_long_name":"AAC (Advanced Audio Coding)","profile":"Main","codec_type":"audio","codec_time_base":"1/48000","codec_tag_string":"[0][0][0][0]","codec_tag":"0x0000","sample_fmt":"fltp","sample_rate":"48000","channels":2,"channel_layout":"stereo","bits_per_sample":0,"r_frame_rate":"0/0","avg_frame_rate":"0/0","time_base":"1/1000","start_pts":0,"start_time":"0.000000","disposition":{"default":1,"dub":0,"original":0,"comment":0,"lyrics":0,"karaoke":0,"forced":0,"hearing_impaired":0,"visual_impaired":0,"clean_effects":0,"attached_pic":0}}],"chapters":[],"format":{"filename":"/Users/till/Downloads/movies/The.Assassin.2015.1080p.WEB-DL.x264.AAC-SHOW/1.高清控联盟-高清影视发烧友的集中地.mkv","nb_streams":2,"nb_programs":0,"format_name":"matroska,webm","format_long_name":"Matroska / WebM","start_time":"0.000000","duration":"15.744000","size":"3267989","bit_rate":"1660563","probe_score":100,"tags":{"encoder":"libebml v1.3.0 + libmatroska v1.4.1","creation_time":"2015-04-25 10:43:30"}}}},{"name":"/Users/till/Downloads/movies/The.Assassin.2015.1080p.WEB-DL.x264.AAC-SHOW/2.访问 www.gaoqingkong.com 获取更多高清发烧资源.mkv","filetype":"file","filesize":3267989,"creationdate":"2015-10-24 19:09:17 +0200","mediaspecs":{"streams":[{"index":0,"codec_name":"h264","codec_long_name":"H.264 / AVC / MPEG-4 AVC / MPEG-4 part 10","profile":"High","codec_type":"video","codec_time_base":"1/50","codec_tag_string":"[0][0][0][0]","codec_tag":"0x0000","width":1280,"height":720,"coded_width":1280,"coded_height":720,"has_b_frames":0,"sample_aspect_ratio":"1:1","display_aspect_ratio":"16:9","pix_fmt":"yuv420p","level":30,"chroma_location":"left","refs":1,"is_avc":"1","nal_length_size":"4","r_frame_rate":"25/1","avg_frame_rate":"25/1","time_base":"1/1000","start_pts":0,"start_time":"0.000000","bits_per_raw_sample":"8","disposition":{"default":1,"dub":0,"original":0,"comment":0,"lyrics":0,"karaoke":0,"forced":0,"hearing_impaired":0,"visual_impaired":0,"clean_effects":0,"attached_pic":0}},{"index":1,"codec_name":"aac","codec_long_name":"AAC (Advanced Audio Coding)","profile":"Main","codec_type":"audio","codec_time_base":"1/48000","codec_tag_string":"[0][0][0][0]","codec_tag":"0x0000","sample_fmt":"fltp","sample_rate":"48000","channels":2,"channel_layout":"stereo","bits_per_sample":0,"r_frame_rate":"0/0","avg_frame_rate":"0/0","time_base":"1/1000","start_pts":0,"start_time":"0.000000","disposition":{"default":1,"dub":0,"original":0,"comment":0,"lyrics":0,"karaoke":0,"forced":0,"hearing_impaired":0,"visual_impaired":0,"clean_effects":0,"attached_pic":0}}],"chapters":[],"format":{"filename":"/Users/till/Downloads/movies/The.Assassin.2015.1080p.WEB-DL.x264.AAC-SHOW/2.访问 www.gaoqingkong.com 获取更多高清发烧资源.mkv","nb_streams":2,"nb_programs":0,"format_name":"matroska,webm","format_long_name":"Matroska / WebM","start_time":"0.000000","duration":"15.744000","size":"3267989","bit_rate":"1660563","probe_score":100,"tags":{"encoder":"libebml v1.3.0 + libmatroska v1.4.1","creation_time":"2015-04-25 10:43:30"}}}},{"name":"/Users/till/Downloads/movies/The.Assassin.2015.1080p.WEB-DL.x264.AAC-SHOW/The.Assassin.2015.1080p.WEB-DL.x264.AAC-SHOW.mkv","filetype":"file","filesize":2404265720,"creationdate":"2015-10-24 21:56:17 +0200","mediaspecs":{"streams":[{"index":0,"codec_name":"h264","codec_long_name":"H.264 / AVC / MPEG-4 AVC / MPEG-4 part 10","profile":"High","codec_type":"video","codec_time_base":"1/48","codec_tag_string":"avc1","codec_tag":"0x31637661","width":1520,"height":1080,"coded_width":1520,"coded_height":1088,"has_b_frames":2,"sample_aspect_ratio":"0:1","display_aspect_ratio":"0:1","pix_fmt":"yuv420p","level":40,"color_range":"tv","color_space":"bt709","color_transfer":"bt709","color_primaries":"bt709","chroma_location":"left","refs":3,"is_avc":"1","nal_length_size":"4","r_frame_rate":"24/1","avg_frame_rate":"153243000/6387391","time_base":"1/16000","start_pts":1328,"start_time":"0.083000","duration_ts":102198256,"duration":"6387.391000","bit_rate":"2814373","bits_per_raw_sample":"8","nb_frames":"153243","disposition":{"default":1,"dub":0,"original":0,"comment":0,"lyrics":0,"karaoke":0,"forced":0,"hearing_impaired":0,"visual_impaired":0,"clean_effects":0,"attached_pic":0},"tags":{"language":"und","handler_name":"VideoHandler"}},{"index":1,"codec_name":"aac","codec_long_name":"AAC (Advanced Audio Coding)","profile":"LC","codec_type":"audio","codec_time_base":"1/44100","codec_tag_string":"mp4a","codec_tag":"0x6134706d","sample_fmt":"fltp","sample_rate":"44100","channels":2,"channel_layout":"stereo","bits_per_sample":0,"r_frame_rate":"0/0","avg_frame_rate":"0/0","time_base":"1/44100","start_pts":0,"start_time":"0.000000","duration_ts":281693769,"duration":"6387.613810","bit_rate":"189696","max_bit_rate":"189696","nb_frames":"274994","disposition":{"default":1,"dub":0,"original":0,"comment":0,"lyrics":0,"karaoke":0,"forced":0,"hearing_impaired":0,"visual_impaired":0,"clean_effects":0,"attached_pic":0},"tags":{"language":"und","handler_name":"SoundHandler"}}],"chapters":[],"format":{"filename":"/Users/till/Downloads/movies/The.Assassin.2015.1080p.WEB-DL.x264.AAC-SHOW/The.Assassin.2015.1080p.WEB-DL.x264.AAC-SHOW.mkv","nb_streams":2,"nb_programs":0,"format_name":"mov,mp4,m4a,3gp,3g2,mj2","format_long_name":"QuickTime / MOV","start_time":"0.000000","duration":"6387.614000","size":"2404265720","bit_rate":"3011159","probe_score":100,"tags":{"major_brand":"isom","minor_version":"512","compatible_brands":"isomiso2avc1mp41","encoder":"Lavf56.34.100"}}}},{"name":"/Users/till/Downloads/movies/The.Assassin.2015.1080p.WEB-DL.x264.AAC-SHOW/The.Assassin.2015.1080p.WEB-DL.x264.AAC-SeeHD.srt","filetype":"file","filesize":22165,"creationdate":"2015-10-24 23:00:31 +0200","mediaspecs":null}]